<mxfile host="app.diagrams.net" modified="2024-02-25T17:38:21.249Z" agent="Mozilla/5.0 (Macintosh; Intel Mac OS X 10_15_7) AppleWebKit/605.1.15 (KHTML, like Gecko) Version/17.3.1 Safari/605.1.15" etag="zxdYsRoTOxhpoz2c6eZy" version="23.1.6" type="device">
  <diagram name="Page-1" id="e56a1550-8fbb-45ad-956c-1786394a9013">
    <mxGraphModel dx="1461" dy="907" grid="1" gridSize="10" guides="1" tooltips="1" connect="1" arrows="1" fold="1" page="1" pageScale="1" pageWidth="1100" pageHeight="850" background="none" math="0" shadow="0">
      <root>
        <mxCell id="0" />
        <mxCell id="1" parent="0" />
        <mxCell id="9UhZ2dSrjOauTP4R7U7s-1" value="User" style="html=1;dashed=0;whiteSpace=wrap;" vertex="1" parent="1">
          <mxGeometry x="500" y="375" width="100" height="50" as="geometry" />
        </mxCell>
        <mxCell id="9UhZ2dSrjOauTP4R7U7s-2" value="name" style="ellipse;whiteSpace=wrap;html=1;align=center;" vertex="1" parent="1">
          <mxGeometry x="310" y="250" width="100" height="40" as="geometry" />
        </mxCell>
        <mxCell id="9UhZ2dSrjOauTP4R7U7s-5" value="interests" style="ellipse;shape=doubleEllipse;margin=3;whiteSpace=wrap;html=1;align=center;" vertex="1" parent="1">
          <mxGeometry x="240" y="300" width="100" height="40" as="geometry" />
        </mxCell>
        <mxCell id="9UhZ2dSrjOauTP4R7U7s-7" value="Post" style="html=1;dashed=0;whiteSpace=wrap;" vertex="1" parent="1">
          <mxGeometry x="990" y="375" width="100" height="50" as="geometry" />
        </mxCell>
        <mxCell id="9UhZ2dSrjOauTP4R7U7s-8" value="Like" style="shape=ext;margin=3;double=1;whiteSpace=wrap;html=1;align=center;" vertex="1" parent="1">
          <mxGeometry x="500" y="640" width="100" height="40" as="geometry" />
        </mxCell>
        <mxCell id="9UhZ2dSrjOauTP4R7U7s-10" value="created_at" style="ellipse;whiteSpace=wrap;html=1;align=center;" vertex="1" parent="1">
          <mxGeometry x="440" y="760" width="100" height="40" as="geometry" />
        </mxCell>
        <mxCell id="9UhZ2dSrjOauTP4R7U7s-11" value="created_at" style="ellipse;whiteSpace=wrap;html=1;align=center;" vertex="1" parent="1">
          <mxGeometry x="1030" y="790" width="100" height="40" as="geometry" />
        </mxCell>
        <mxCell id="9UhZ2dSrjOauTP4R7U7s-12" value="created_at" style="ellipse;whiteSpace=wrap;html=1;align=center;" vertex="1" parent="1">
          <mxGeometry x="1150" y="230" width="100" height="40" as="geometry" />
        </mxCell>
        <mxCell id="9UhZ2dSrjOauTP4R7U7s-14" value="" style="endArrow=none;html=1;rounded=0;entryX=0;entryY=1;entryDx=0;entryDy=0;exitX=0.5;exitY=0;exitDx=0;exitDy=0;" edge="1" parent="1" source="9UhZ2dSrjOauTP4R7U7s-10" target="9UhZ2dSrjOauTP4R7U7s-8">
          <mxGeometry width="50" height="50" relative="1" as="geometry">
            <mxPoint x="410" y="450" as="sourcePoint" />
            <mxPoint x="460" y="400" as="targetPoint" />
          </mxGeometry>
        </mxCell>
        <mxCell id="9UhZ2dSrjOauTP4R7U7s-15" value="" style="endArrow=none;html=1;rounded=0;entryX=0.5;entryY=0;entryDx=0;entryDy=0;exitX=0.5;exitY=1;exitDx=0;exitDy=0;" edge="1" parent="1" source="9UhZ2dSrjOauTP4R7U7s-47" target="9UhZ2dSrjOauTP4R7U7s-11">
          <mxGeometry width="50" height="50" relative="1" as="geometry">
            <mxPoint x="830" y="690" as="sourcePoint" />
            <mxPoint x="680" y="500" as="targetPoint" />
          </mxGeometry>
        </mxCell>
        <mxCell id="9UhZ2dSrjOauTP4R7U7s-16" value="text" style="ellipse;whiteSpace=wrap;html=1;align=center;" vertex="1" parent="1">
          <mxGeometry x="920" y="800" width="100" height="40" as="geometry" />
        </mxCell>
        <mxCell id="9UhZ2dSrjOauTP4R7U7s-17" value="" style="endArrow=none;html=1;rounded=0;entryX=0.5;entryY=0;entryDx=0;entryDy=0;exitX=0.25;exitY=1;exitDx=0;exitDy=0;" edge="1" parent="1" source="9UhZ2dSrjOauTP4R7U7s-47" target="9UhZ2dSrjOauTP4R7U7s-16">
          <mxGeometry width="50" height="50" relative="1" as="geometry">
            <mxPoint x="774" y="690" as="sourcePoint" />
            <mxPoint x="870" y="770" as="targetPoint" />
          </mxGeometry>
        </mxCell>
        <mxCell id="9UhZ2dSrjOauTP4R7U7s-20" value="id" style="ellipse;whiteSpace=wrap;html=1;align=center;fontStyle=4;" vertex="1" parent="1">
          <mxGeometry x="420" y="240" width="100" height="40" as="geometry" />
        </mxCell>
        <mxCell id="9UhZ2dSrjOauTP4R7U7s-22" value="id" style="ellipse;whiteSpace=wrap;html=1;align=center;fontStyle=4;" vertex="1" parent="1">
          <mxGeometry x="1150" y="340" width="100" height="40" as="geometry" />
        </mxCell>
        <mxCell id="9UhZ2dSrjOauTP4R7U7s-23" value="Follows" style="shape=rhombus;perimeter=rhombusPerimeter;whiteSpace=wrap;html=1;align=center;" vertex="1" parent="1">
          <mxGeometry x="280" y="370" width="120" height="60" as="geometry" />
        </mxCell>
        <mxCell id="9UhZ2dSrjOauTP4R7U7s-35" value="Likes" style="shape=rhombus;double=1;perimeter=rhombusPerimeter;whiteSpace=wrap;html=1;align=center;" vertex="1" parent="1">
          <mxGeometry x="490" y="540" width="120" height="60" as="geometry" />
        </mxCell>
        <mxCell id="9UhZ2dSrjOauTP4R7U7s-36" value="Creates" style="shape=rhombus;perimeter=rhombusPerimeter;whiteSpace=wrap;html=1;align=center;" vertex="1" parent="1">
          <mxGeometry x="740" y="370" width="120" height="60" as="geometry" />
        </mxCell>
        <mxCell id="9UhZ2dSrjOauTP4R7U7s-45" value="" style="edgeStyle=entityRelationEdgeStyle;fontSize=12;html=1;endArrow=ERzeroToMany;endFill=1;rounded=0;" edge="1" parent="1" source="9UhZ2dSrjOauTP4R7U7s-23">
          <mxGeometry width="100" height="100" relative="1" as="geometry">
            <mxPoint x="400" y="500" as="sourcePoint" />
            <mxPoint x="500" y="400" as="targetPoint" />
          </mxGeometry>
        </mxCell>
        <mxCell id="9UhZ2dSrjOauTP4R7U7s-46" value="" style="edgeStyle=orthogonalEdgeStyle;fontSize=12;html=1;endArrow=ERzeroToMany;endFill=1;rounded=0;entryX=0.19;entryY=1.02;entryDx=0;entryDy=0;exitX=0.5;exitY=1;exitDx=0;exitDy=0;entryPerimeter=0;" edge="1" parent="1" source="9UhZ2dSrjOauTP4R7U7s-23" target="9UhZ2dSrjOauTP4R7U7s-1">
          <mxGeometry width="100" height="100" relative="1" as="geometry">
            <mxPoint x="350" y="490" as="sourcePoint" />
            <mxPoint x="450" y="490" as="targetPoint" />
          </mxGeometry>
        </mxCell>
        <mxCell id="9UhZ2dSrjOauTP4R7U7s-47" value="Comment" style="html=1;dashed=0;whiteSpace=wrap;" vertex="1" parent="1">
          <mxGeometry x="990" y="660" width="100" height="50" as="geometry" />
        </mxCell>
        <mxCell id="9UhZ2dSrjOauTP4R7U7s-48" value="Comments" style="shape=rhombus;perimeter=rhombusPerimeter;whiteSpace=wrap;html=1;align=center;" vertex="1" parent="1">
          <mxGeometry x="980" y="540" width="120" height="60" as="geometry" />
        </mxCell>
        <mxCell id="9UhZ2dSrjOauTP4R7U7s-49" value="" style="fontSize=12;html=1;endArrow=ERzeroToMany;endFill=1;rounded=0;entryX=0;entryY=0.5;entryDx=0;entryDy=0;exitX=1;exitY=0.5;exitDx=0;exitDy=0;" edge="1" parent="1" source="9UhZ2dSrjOauTP4R7U7s-36" target="9UhZ2dSrjOauTP4R7U7s-7">
          <mxGeometry width="100" height="100" relative="1" as="geometry">
            <mxPoint x="880" y="330" as="sourcePoint" />
            <mxPoint x="990" y="299.5" as="targetPoint" />
          </mxGeometry>
        </mxCell>
        <mxCell id="9UhZ2dSrjOauTP4R7U7s-50" value="" style="fontSize=12;html=1;endArrow=ERmandOne;rounded=0;entryX=1;entryY=0.5;entryDx=0;entryDy=0;" edge="1" parent="1" source="9UhZ2dSrjOauTP4R7U7s-36" target="9UhZ2dSrjOauTP4R7U7s-1">
          <mxGeometry width="100" height="100" relative="1" as="geometry">
            <mxPoint x="600" y="530" as="sourcePoint" />
            <mxPoint x="700" y="430" as="targetPoint" />
          </mxGeometry>
        </mxCell>
        <mxCell id="9UhZ2dSrjOauTP4R7U7s-52" value="" style="fontSize=12;html=1;endArrow=ERmandOne;rounded=0;exitX=0.5;exitY=0;exitDx=0;exitDy=0;entryX=0.5;entryY=1;entryDx=0;entryDy=0;" edge="1" parent="1" source="9UhZ2dSrjOauTP4R7U7s-48" target="9UhZ2dSrjOauTP4R7U7s-7">
          <mxGeometry width="100" height="100" relative="1" as="geometry">
            <mxPoint x="890" y="525" as="sourcePoint" />
            <mxPoint x="990" y="425" as="targetPoint" />
          </mxGeometry>
        </mxCell>
        <mxCell id="9UhZ2dSrjOauTP4R7U7s-53" value="" style="edgeStyle=orthogonalEdgeStyle;fontSize=12;html=1;endArrow=ERzeroToMany;endFill=1;rounded=0;entryX=0.5;entryY=0;entryDx=0;entryDy=0;exitX=0.5;exitY=1;exitDx=0;exitDy=0;" edge="1" parent="1" source="9UhZ2dSrjOauTP4R7U7s-48" target="9UhZ2dSrjOauTP4R7U7s-47">
          <mxGeometry width="100" height="100" relative="1" as="geometry">
            <mxPoint x="540" y="644" as="sourcePoint" />
            <mxPoint x="719" y="640" as="targetPoint" />
          </mxGeometry>
        </mxCell>
        <mxCell id="9UhZ2dSrjOauTP4R7U7s-54" value="" style="edgeStyle=entityRelationEdgeStyle;fontSize=12;html=1;endArrow=ERmandOne;rounded=0;entryX=1;entryY=1;entryDx=0;entryDy=0;exitX=0;exitY=0.5;exitDx=0;exitDy=0;" edge="1" parent="1" source="9UhZ2dSrjOauTP4R7U7s-48" target="9UhZ2dSrjOauTP4R7U7s-1">
          <mxGeometry width="100" height="100" relative="1" as="geometry">
            <mxPoint x="730" y="495" as="sourcePoint" />
            <mxPoint x="590" y="520" as="targetPoint" />
          </mxGeometry>
        </mxCell>
        <mxCell id="9UhZ2dSrjOauTP4R7U7s-55" value="" style="fontSize=12;html=1;endArrow=ERmandOne;rounded=0;entryX=0.5;entryY=1;entryDx=0;entryDy=0;exitX=0.5;exitY=0;exitDx=0;exitDy=0;" edge="1" parent="1" source="9UhZ2dSrjOauTP4R7U7s-35" target="9UhZ2dSrjOauTP4R7U7s-1">
          <mxGeometry width="100" height="100" relative="1" as="geometry">
            <mxPoint x="970" y="635" as="sourcePoint" />
            <mxPoint x="590" y="490" as="targetPoint" />
          </mxGeometry>
        </mxCell>
        <mxCell id="9UhZ2dSrjOauTP4R7U7s-56" value="" style="fontSize=12;html=1;endArrow=ERmandOne;rounded=0;entryX=0.5;entryY=0;entryDx=0;entryDy=0;exitX=0.5;exitY=1;exitDx=0;exitDy=0;" edge="1" parent="1" source="9UhZ2dSrjOauTP4R7U7s-35" target="9UhZ2dSrjOauTP4R7U7s-8">
          <mxGeometry width="100" height="100" relative="1" as="geometry">
            <mxPoint x="729" y="680" as="sourcePoint" />
            <mxPoint x="729" y="565" as="targetPoint" />
          </mxGeometry>
        </mxCell>
        <mxCell id="9UhZ2dSrjOauTP4R7U7s-58" value="" style="edgeStyle=entityRelationEdgeStyle;fontSize=12;html=1;endArrow=ERmandOne;rounded=0;entryX=0;entryY=0.75;entryDx=0;entryDy=0;exitX=1;exitY=0.5;exitDx=0;exitDy=0;" edge="1" parent="1" source="9UhZ2dSrjOauTP4R7U7s-35" target="9UhZ2dSrjOauTP4R7U7s-7">
          <mxGeometry width="100" height="100" relative="1" as="geometry">
            <mxPoint x="650" y="530" as="sourcePoint" />
            <mxPoint x="750" y="430" as="targetPoint" />
          </mxGeometry>
        </mxCell>
        <mxCell id="9UhZ2dSrjOauTP4R7U7s-59" value="" style="endArrow=none;html=1;rounded=0;exitX=0.5;exitY=1;exitDx=0;exitDy=0;entryX=0;entryY=0;entryDx=0;entryDy=0;" edge="1" parent="1" source="9UhZ2dSrjOauTP4R7U7s-5" target="9UhZ2dSrjOauTP4R7U7s-1">
          <mxGeometry width="50" height="50" relative="1" as="geometry">
            <mxPoint x="450" y="430" as="sourcePoint" />
            <mxPoint x="490" y="340" as="targetPoint" />
          </mxGeometry>
        </mxCell>
        <mxCell id="9UhZ2dSrjOauTP4R7U7s-60" value="" style="endArrow=none;html=1;rounded=0;entryX=0.5;entryY=1;entryDx=0;entryDy=0;exitX=0.5;exitY=0;exitDx=0;exitDy=0;" edge="1" parent="1" source="9UhZ2dSrjOauTP4R7U7s-1" target="9UhZ2dSrjOauTP4R7U7s-2">
          <mxGeometry width="50" height="50" relative="1" as="geometry">
            <mxPoint x="680" y="510" as="sourcePoint" />
            <mxPoint x="730" y="460" as="targetPoint" />
          </mxGeometry>
        </mxCell>
        <mxCell id="9UhZ2dSrjOauTP4R7U7s-61" value="" style="endArrow=none;html=1;rounded=0;entryX=0.5;entryY=1;entryDx=0;entryDy=0;exitX=0.75;exitY=0;exitDx=0;exitDy=0;" edge="1" parent="1" source="9UhZ2dSrjOauTP4R7U7s-1" target="9UhZ2dSrjOauTP4R7U7s-20">
          <mxGeometry width="50" height="50" relative="1" as="geometry">
            <mxPoint x="680" y="510" as="sourcePoint" />
            <mxPoint x="730" y="460" as="targetPoint" />
          </mxGeometry>
        </mxCell>
        <mxCell id="9UhZ2dSrjOauTP4R7U7s-62" value="" style="endArrow=none;html=1;rounded=0;entryX=0;entryY=0.5;entryDx=0;entryDy=0;exitX=1;exitY=0.5;exitDx=0;exitDy=0;" edge="1" parent="1" source="9UhZ2dSrjOauTP4R7U7s-7" target="9UhZ2dSrjOauTP4R7U7s-22">
          <mxGeometry width="50" height="50" relative="1" as="geometry">
            <mxPoint x="680" y="510" as="sourcePoint" />
            <mxPoint x="730" y="460" as="targetPoint" />
          </mxGeometry>
        </mxCell>
        <mxCell id="9UhZ2dSrjOauTP4R7U7s-63" value="" style="endArrow=none;html=1;rounded=0;entryX=0;entryY=0.5;entryDx=0;entryDy=0;exitX=0.75;exitY=0;exitDx=0;exitDy=0;" edge="1" parent="1" source="9UhZ2dSrjOauTP4R7U7s-7" target="9UhZ2dSrjOauTP4R7U7s-12">
          <mxGeometry width="50" height="50" relative="1" as="geometry">
            <mxPoint x="680" y="510" as="sourcePoint" />
            <mxPoint x="730" y="460" as="targetPoint" />
          </mxGeometry>
        </mxCell>
        <mxCell id="9UhZ2dSrjOauTP4R7U7s-64" value="like_count" style="ellipse;whiteSpace=wrap;html=1;align=center;" vertex="1" parent="1">
          <mxGeometry x="1010" y="230" width="100" height="40" as="geometry" />
        </mxCell>
        <mxCell id="9UhZ2dSrjOauTP4R7U7s-65" value="comment_count" style="ellipse;whiteSpace=wrap;html=1;align=center;" vertex="1" parent="1">
          <mxGeometry x="890" y="250" width="100" height="40" as="geometry" />
        </mxCell>
        <mxCell id="9UhZ2dSrjOauTP4R7U7s-66" value="" style="endArrow=none;html=1;rounded=0;entryX=0.5;entryY=1;entryDx=0;entryDy=0;exitX=0.25;exitY=0;exitDx=0;exitDy=0;" edge="1" parent="1" source="9UhZ2dSrjOauTP4R7U7s-7" target="9UhZ2dSrjOauTP4R7U7s-65">
          <mxGeometry width="50" height="50" relative="1" as="geometry">
            <mxPoint x="680" y="510" as="sourcePoint" />
            <mxPoint x="730" y="460" as="targetPoint" />
          </mxGeometry>
        </mxCell>
        <mxCell id="9UhZ2dSrjOauTP4R7U7s-67" value="" style="endArrow=none;html=1;rounded=0;entryX=0.5;entryY=1;entryDx=0;entryDy=0;exitX=0.5;exitY=0;exitDx=0;exitDy=0;" edge="1" parent="1" source="9UhZ2dSrjOauTP4R7U7s-7" target="9UhZ2dSrjOauTP4R7U7s-64">
          <mxGeometry width="50" height="50" relative="1" as="geometry">
            <mxPoint x="680" y="510" as="sourcePoint" />
            <mxPoint x="730" y="460" as="targetPoint" />
          </mxGeometry>
        </mxCell>
        <mxCell id="9UhZ2dSrjOauTP4R7U7s-68" value="latitude" style="ellipse;whiteSpace=wrap;html=1;align=center;" vertex="1" parent="1">
          <mxGeometry x="1150" y="405" width="100" height="40" as="geometry" />
        </mxCell>
        <mxCell id="9UhZ2dSrjOauTP4R7U7s-69" value="longitude" style="ellipse;whiteSpace=wrap;html=1;align=center;" vertex="1" parent="1">
          <mxGeometry x="1150" y="470" width="100" height="40" as="geometry" />
        </mxCell>
        <mxCell id="9UhZ2dSrjOauTP4R7U7s-70" value="" style="endArrow=none;html=1;rounded=0;entryX=0;entryY=0.5;entryDx=0;entryDy=0;exitX=1;exitY=0.75;exitDx=0;exitDy=0;" edge="1" parent="1" source="9UhZ2dSrjOauTP4R7U7s-7" target="9UhZ2dSrjOauTP4R7U7s-68">
          <mxGeometry width="50" height="50" relative="1" as="geometry">
            <mxPoint x="680" y="510" as="sourcePoint" />
            <mxPoint x="730" y="460" as="targetPoint" />
          </mxGeometry>
        </mxCell>
        <mxCell id="9UhZ2dSrjOauTP4R7U7s-71" value="" style="endArrow=none;html=1;rounded=0;entryX=0;entryY=0.5;entryDx=0;entryDy=0;exitX=1;exitY=1;exitDx=0;exitDy=0;" edge="1" parent="1" source="9UhZ2dSrjOauTP4R7U7s-7" target="9UhZ2dSrjOauTP4R7U7s-69">
          <mxGeometry width="50" height="50" relative="1" as="geometry">
            <mxPoint x="680" y="510" as="sourcePoint" />
            <mxPoint x="730" y="460" as="targetPoint" />
          </mxGeometry>
        </mxCell>
        <mxCell id="9UhZ2dSrjOauTP4R7U7s-72" value="category" style="ellipse;whiteSpace=wrap;html=1;align=center;" vertex="1" parent="1">
          <mxGeometry x="1150" y="290" width="100" height="40" as="geometry" />
        </mxCell>
        <mxCell id="9UhZ2dSrjOauTP4R7U7s-73" value="" style="endArrow=none;html=1;rounded=0;entryX=0;entryY=0.5;entryDx=0;entryDy=0;exitX=1;exitY=0;exitDx=0;exitDy=0;" edge="1" parent="1" source="9UhZ2dSrjOauTP4R7U7s-7" target="9UhZ2dSrjOauTP4R7U7s-72">
          <mxGeometry width="50" height="50" relative="1" as="geometry">
            <mxPoint x="680" y="510" as="sourcePoint" />
            <mxPoint x="730" y="460" as="targetPoint" />
          </mxGeometry>
        </mxCell>
        <mxCell id="9UhZ2dSrjOauTP4R7U7s-74" value="text" style="ellipse;whiteSpace=wrap;html=1;align=center;" vertex="1" parent="1">
          <mxGeometry x="1140" y="780" width="100" height="40" as="geometry" />
        </mxCell>
        <mxCell id="9UhZ2dSrjOauTP4R7U7s-75" value="" style="endArrow=none;html=1;rounded=0;entryX=0.5;entryY=0;entryDx=0;entryDy=0;exitX=1;exitY=1;exitDx=0;exitDy=0;" edge="1" parent="1" source="9UhZ2dSrjOauTP4R7U7s-47" target="9UhZ2dSrjOauTP4R7U7s-74">
          <mxGeometry width="50" height="50" relative="1" as="geometry">
            <mxPoint x="680" y="510" as="sourcePoint" />
            <mxPoint x="730" y="460" as="targetPoint" />
          </mxGeometry>
        </mxCell>
        <mxCell id="9UhZ2dSrjOauTP4R7U7s-76" value="longitude" style="ellipse;whiteSpace=wrap;html=1;align=center;" vertex="1" parent="1">
          <mxGeometry x="640" y="240" width="100" height="40" as="geometry" />
        </mxCell>
        <mxCell id="9UhZ2dSrjOauTP4R7U7s-77" value="latitude" style="ellipse;whiteSpace=wrap;html=1;align=center;" vertex="1" parent="1">
          <mxGeometry x="530" y="240" width="100" height="40" as="geometry" />
        </mxCell>
        <mxCell id="9UhZ2dSrjOauTP4R7U7s-78" value="" style="endArrow=none;html=1;rounded=0;entryX=0.5;entryY=1;entryDx=0;entryDy=0;exitX=0.75;exitY=0;exitDx=0;exitDy=0;" edge="1" parent="1" source="9UhZ2dSrjOauTP4R7U7s-1" target="9UhZ2dSrjOauTP4R7U7s-77">
          <mxGeometry width="50" height="50" relative="1" as="geometry">
            <mxPoint x="730" y="480" as="sourcePoint" />
            <mxPoint x="780" y="430" as="targetPoint" />
          </mxGeometry>
        </mxCell>
        <mxCell id="9UhZ2dSrjOauTP4R7U7s-79" value="" style="endArrow=none;html=1;rounded=0;entryX=0.5;entryY=1;entryDx=0;entryDy=0;exitX=0.75;exitY=0;exitDx=0;exitDy=0;" edge="1" parent="1" source="9UhZ2dSrjOauTP4R7U7s-1" target="9UhZ2dSrjOauTP4R7U7s-76">
          <mxGeometry width="50" height="50" relative="1" as="geometry">
            <mxPoint x="730" y="480" as="sourcePoint" />
            <mxPoint x="780" y="430" as="targetPoint" />
          </mxGeometry>
        </mxCell>
      </root>
    </mxGraphModel>
  </diagram>
</mxfile>
